<?xml version="1.0" encoding="utf-8"?>
<!-- Generator: Adobe Illustrator 27.5.0, SVG Export Plug-In . SVG Version: 6.00 Build 0)  -->
<svg version="1.1" id="SvgjsSvg1085" xmlns:svgjs="http://svgjs.dev/svgjs"
	 xmlns="http://www.w3.org/2000/svg" xmlns:xlink="http://www.w3.org/1999/xlink" x="0px" y="0px" viewBox="0 0 1000 1000"
	 style="enable-background:new 0 0 1000 1000;" xml:space="preserve">
<style type="text/css">
	.st0{fill:#755BB4;}
	.st1{fill:#FFFFFF;}
	.st2{display:none;fill:none;}
</style>
<circle class="st0" cx="500" cy="500" r="493.5"/>
<g transform="matrix(0.7,0,0,0.7,149.57575757575756,282.1265587044535)">
	<g id="tight-bounds" transform="matrix(1,0,0,1,0.2400000000000091,-0.09999999999999432)">
		<g>
			<g>
				<g>
					<path class="st1" d="M717.4,133L717.4,133v359.5c0,24.7,7.3,40.9,21.9,48.6l0,0c-16.4,19.6-37.2,29.4-62.3,29.4l0,0
						c-44.7,0-67.1-27.2-67.1-81.5l0,0V341.8H392.2v150.6c0,24.7,7.3,40.9,21.9,48.6l0,0c-17.3,19.6-37.9,29.4-61.6,29.4
						c-23.7,0-41.1-6.6-52-19.9c-11-13.2-16.4-33.8-16.4-61.6l0,0V128.9c0-23.7-7.5-39.5-22.6-47.2l0,0
						c16.4-19.6,37.2-29.4,62.3-29.4l0,0c45.6,0,68.5,26.9,68.5,80.8l0,0v139h217.7V128.9c0-23.3-7.8-39-23.3-47.2l0,0
						c17.3-19.6,38-29.4,62-29.4c23.9,0,41.4,6.6,52.3,19.9C711.9,85.3,717.4,105.6,717.4,133L717.4,133z"/>
				</g>
			</g>
			<g transform="matrix(1,0,0,1,134.73090502793295,37.08)">
				<g>
					<g>
						<g>
							<g id="textblocktransform">
								<g>
									<g transform="matrix(1,0,0,1,0,0)">
										<path id="text-0" class="st1" d="M540.1,297.5L540.1,297.5V477c0,25.7,7.6,42.7,22.9,50.8l0,0
											c-17.2,20.5-38.9,30.8-65.1,30.8l0,0c-46.7,0-70.1-28.4-70.1-85.1l0,0V314c0-17.2-4.1-30.7-12.4-40.5
											c-8.4-9.7-20.2-14.6-35.5-14.6s-30,7-44.3,21c-14.3,14.1-24.6,35-30.8,62.6l0,0V477c0,25.7,7.9,42.7,23.6,50.8l0,0
											c-18.1,20.5-40,30.8-65.8,30.8l0,0c-46.7,0-70.1-28.4-70.1-85.1l0,0V70.8c0-23.8-8.1-40.8-24.3-50.8l0,0
											c18.1-20,40-30,65.8-30l0,0c47.2,0,70.8,28.4,70.8,85.1l0,0v168.1c12.9-24.3,30.7-42.8,53.4-55.5
											c22.6-12.6,48.8-18.9,78.7-18.9c29.8,0,54.4,11,73.9,32.9S540.1,255.6,540.1,297.5z"/>
									</g>
								</g>
							</g>
						</g>
					</g>
				</g>
			</g>
		</g>
		<rect x="-253.6" y="-159.9" class="st2" width="1507.9" height="942.4"/>
	</g>
</g>
</svg>
